<?xml version="1.0" encoding="iso-8859-1"?>
<!-- Generator: Adobe Illustrator 17.1.0, SVG Export Plug-In . SVG Version: 6.00 Build 0)  -->
<!DOCTYPE svg PUBLIC "-//W3C//DTD SVG 1.1//EN" "http://www.w3.org/Graphics/SVG/1.1/DTD/svg11.dtd">
<svg version="1.1" id="Capa_1" xmlns="http://www.w3.org/2000/svg" xmlns:xlink="http://www.w3.org/1999/xlink" x="0px" y="0px"
	 viewBox="0 0 470 470" style="enable-background:new 0 0 470 470;" xml:space="preserve">
<g>
	<path d="M467.627,79.193c-2.229-2.169-5.568-2.738-8.392-1.425l-125.406,58.301L392.13,10.662c1.313-2.822,0.745-6.161-1.425-8.392
		c-2.171-2.229-5.491-2.89-8.35-1.655c-18.688,8.071-35.986,23.298-56.089,49.375c-20.622,26.75-45.036,65.778-79.02,126.33
		l-26.634,12.381c-7.629-1.958-15.143-2.255-22.758-0.885l-3.033-6.705c-3.679-8.132-11.824-13.387-20.752-13.387
		c-3.247,0-6.4,0.682-9.399,2.039l-22.3,10.188c-0.353,0.1-0.704,0.219-1.049,0.374c-0.363,0.164-0.699,0.36-1.022,0.572
		L22.661,234.645C3.774,243.19-4.986,264.744,3.133,282.692c5.866,12.969,18.858,21.35,33.099,21.351
		c5.175,0,10.204-1.088,14.948-3.234l143.446-64.892c5.541-2.506,9.774-7.021,11.92-12.711s1.946-11.875-0.561-17.415l-1.668-3.687
		c4.9-0.378,9.772,0.194,14.725,1.729l35.893,11.128l11.127,35.894c1.537,4.959,2.109,9.828,1.731,14.725l-3.687-1.668
		c-2.974-1.345-6.128-2.027-9.374-2.027c-8.928,0-17.073,5.254-20.752,13.387L169.09,418.719
		c-8.252,18.241-0.125,39.795,18.116,48.047c4.744,2.146,9.773,3.234,14.948,3.234c14.238,0,27.23-8.381,33.099-21.351
		l64.892-143.447c2.507-5.541,2.706-11.726,0.561-17.416c-2.146-5.69-6.379-10.204-11.919-12.71l-6.705-3.033
		c1.371-7.614,1.074-15.13-0.884-22.76l12.381-26.631c60.552-33.985,99.581-58.399,126.331-79.021
		c26.076-20.103,41.304-37.401,49.375-56.089C470.517,84.685,469.858,81.363,467.627,79.193z M36.234,289.043
		c-8.363-0.001-15.991-4.92-19.436-12.534c-4.63-10.236,0.886-23.149,12.07-28.209l111.853-51.103l17.515,38.718L44.998,287.142
		C42.209,288.404,39.261,289.043,36.234,289.043z M188.444,222.25l-16.541,7.483l-17.538-38.768l16.514-7.545
		c1.018-0.461,2.092-0.694,3.191-0.694c3.049,0,5.83,1.793,7.086,4.569l11.163,24.679c0.854,1.89,0.923,4,0.191,5.94
		C191.778,219.855,190.334,221.395,188.444,222.25z M286.479,299.02l-7.483,16.541l-38.831-17.567l7.483-16.541
		c1.256-2.776,4.037-4.569,7.086-4.569c1.1,0,2.174,0.233,3.191,0.694l24.679,11.164c1.89,0.855,3.334,2.395,4.066,4.336
		C287.401,295.02,287.333,297.13,286.479,299.02z M202.154,455c-3.028,0-5.978-0.64-8.766-1.901
		c-10.706-4.843-15.476-17.493-10.633-28.198l51.227-113.24l38.831,17.566l-51.226,113.239C218.142,450.08,210.514,455,202.154,455z
		 M367.949,27.093L274.63,227.828l-6.513-21.009c-0.01-0.033-7.397-23.859-7.397-23.859
		C310.58,94.163,341.228,48.971,367.949,27.093z M247.979,192.521l1.571,5.066l-7.479-2.319L247.979,192.521z M324.019,157.171
		l118.786-55.223c-20.39,24.906-61.037,53.223-138.359,97.326L324.019,157.171z"/>
</g>
<g>
</g>
<g>
</g>
<g>
</g>
<g>
</g>
<g>
</g>
<g>
</g>
<g>
</g>
<g>
</g>
<g>
</g>
<g>
</g>
<g>
</g>
<g>
</g>
<g>
</g>
<g>
</g>
<g>
</g>
</svg>
